<svg width="71" height="61" viewBox="0 0 71 61" fill="none" xmlns="http://www.w3.org/2000/svg">
<path fill-rule="evenodd" clip-rule="evenodd" d="M43.1696 0C62.1428 0 71 20.7808 71 39.6912C71 53.3511 56.8748 61 43.1696 61C24.3567 61 0 58.442 0 39.6912C0 16.8307 20.2333 0 43.1696 0Z" fill="#FD8584"/>
<circle cx="25.5" cy="21.5" r="3.5" fill="black"/>
<circle cx="46.5" cy="21.5" r="3.5" fill="black"/>
<path d="M39.793 20.5448L50.793 15.5448" stroke="black" stroke-linecap="round"/>
<path d="M22.2427 15.5629L31.2427 20.5629" stroke="black" stroke-linecap="round"/>
<path d="M36.7125 33.3054C36.5351 33.1565 36.3114 33.0738 36.0798 33.0714C35.8482 33.0691 35.623 33.1472 35.4426 33.2924L29.3936 38.061C29.2901 38.1425 29.2036 38.2436 29.1393 38.3586C29.0749 38.4736 29.0339 38.6002 29.0187 38.7311C29.0034 38.8619 29.0141 38.9946 29.0503 39.1213C29.0864 39.248 29.1473 39.3663 29.2293 39.4694C29.3107 39.573 29.4119 39.6594 29.5269 39.7238C29.6419 39.7881 29.7684 39.8291 29.8993 39.8444C30.0302 39.8597 30.1628 39.8489 30.2895 39.8128C30.4162 39.7766 30.5345 39.7158 30.6377 39.6338L36.0515 35.3587L41.3656 39.8931C41.5681 40.065 41.8305 40.1493 42.0952 40.1276C42.3598 40.1059 42.605 39.98 42.7768 39.7775C42.9486 39.575 43.033 39.3126 43.0113 39.048C42.9896 38.7833 42.8637 38.5381 42.6612 38.3663L36.7125 33.3054Z" fill="black"/>
</svg>
