<svg width="71" height="61" viewBox="0 0 71 61" fill="none" xmlns="http://www.w3.org/2000/svg">
<path fill-rule="evenodd" clip-rule="evenodd" d="M43.1696 0C62.1428 0 71 20.7808 71 39.6912C71 53.3511 56.8748 61 43.1696 61C24.3567 61 0 58.442 0 39.6912C0 16.8307 20.2333 0 43.1696 0Z" fill="#92FD86"/>
<path fill-rule="evenodd" clip-rule="evenodd" d="M31.071 21.071L26.121 26.021C25.7305 26.4115 25.0975 26.4115 24.707 26.021C24.3165 25.6305 24.3165 24.9975 24.707 24.607L28.2429 21.0711C28.6334 20.6806 28.6334 20.0474 28.2429 19.6569L24.707 16.121C24.3165 15.7305 24.3165 15.0975 24.707 14.707C25.0975 14.3165 25.7305 14.3165 26.121 14.707L31.071 19.657C31.2585 19.8445 31.3638 20.0988 31.3638 20.364C31.3638 20.6292 31.2585 20.8835 31.071 21.071Z" fill="black"/>
<path fill-rule="evenodd" clip-rule="evenodd" d="M42.2928 19.657L47.2428 14.707C47.6332 14.3166 48.2663 14.3166 48.6568 14.707C49.0472 15.0975 49.0472 15.7306 48.6568 16.121L45.1209 19.6569C44.7304 20.0474 44.7304 20.6806 45.1209 21.0711L48.6568 24.607C49.0472 24.9975 49.0472 25.6306 48.6568 26.021C48.2663 26.4115 47.6332 26.4115 47.2428 26.021L42.2928 21.071C42.1053 20.8835 42 20.6292 42 20.364C42 20.0989 42.1053 19.8446 42.2928 19.657Z" fill="black"/>
<path d="M30.5 40.4758C33.2731 39.1842 36.9755 38.4834 40.0037 39.3919C40.6187 39.5764 41.6147 39.9453 42.0126 40.4758" stroke="black" stroke-linecap="round"/>
<path d="M29 38C30.0238 38.945 30.2864 39.8684 30.0534 41.2081C29.9846 41.6038 29.6705 42.3093 29.1915 42.3093" stroke="black" stroke-linecap="round"/>
<path d="M43.1323 42.3093C42.1085 41.3643 41.8459 40.4409 42.0789 39.1013C42.1478 38.7055 42.4618 38 42.9408 38" stroke="black" stroke-linecap="round"/>
</svg>
