<svg width="71" height="61" viewBox="0 0 71 61" fill="none" xmlns="http://www.w3.org/2000/svg">
<path fill-rule="evenodd" clip-rule="evenodd" d="M43.1696 0C62.1428 0 71 20.7808 71 39.6912C71 53.3511 56.8748 61 43.1696 61C24.3567 61 0 58.442 0 39.6912C0 16.8307 20.2333 0 43.1696 0Z" fill="#FFD4D4"/>
<path d="M25.1844 24.875L25.7937 22.2406L23.75 20.4688L26.45 20.2344L27.5 17.75L28.55 20.2344L31.25 20.4688L29.2062 22.2406L29.8156 24.875L27.5 23.4781L25.1844 24.875Z" fill="#F72222"/>
<path d="M42.1844 24.875L42.7937 22.2406L40.75 20.4688L43.45 20.2344L44.5 17.75L45.55 20.2344L48.25 20.4688L46.2062 22.2406L46.8156 24.875L44.5 23.4781L42.1844 24.875Z" fill="#F72222"/>
<path d="M28 37H45C45 39.3869 44.1045 41.6761 42.5104 43.364C40.9163 45.0518 38.7543 46 36.5 46C34.2457 46 32.0837 45.0518 30.4896 43.364C28.8955 41.6761 28 39.3869 28 37Z" fill="black"/>
</svg>
