<svg width="71" height="61" viewBox="0 0 71 61" fill="none" xmlns="http://www.w3.org/2000/svg">
<path fill-rule="evenodd" clip-rule="evenodd" d="M43.1696 0C62.1428 0 71 20.7808 71 39.6912C71 53.3511 56.8748 61 43.1696 61C24.3567 61 0 58.442 0 39.6912C0 16.8307 20.2333 0 43.1696 0Z" fill="#FF985D"/>
<circle cx="25.5" cy="21.5" r="3.5" fill="black"/>
<circle cx="46.5" cy="21.5" r="3.5" fill="black"/>
<path d="M23.5068 16C23.3328 17.3824 22.734 18.1327 21.5084 18.7217C21.1463 18.8957 20.3897 19.0501 20.1113 18.6603" stroke="black" stroke-linecap="round"/>
<path d="M51.3555 17.9492C50.0495 18.4348 49.1072 18.2513 48.0179 17.4376C47.6961 17.1972 47.2089 16.598 47.4255 16.1708" stroke="black" stroke-linecap="round"/>
<path d="M46 43H29C29 40.6131 29.8955 38.3239 31.4896 36.636C33.0837 34.9482 35.2457 34 37.5 34C39.7543 34 41.9163 34.9482 43.5104 36.636C45.1045 38.3239 46 40.6131 46 43Z" fill="black"/>
</svg>
