<svg width="71" height="61" viewBox="0 0 71 61" fill="none" xmlns="http://www.w3.org/2000/svg">
<path fill-rule="evenodd" clip-rule="evenodd" d="M43.1696 0C62.1428 0 71 20.7808 71 39.6912C71 53.3511 56.8748 61 43.1696 61C24.3567 61 0 58.442 0 39.6912C0 16.8307 20.2333 0 43.1696 0Z" fill="#FF5EA1"/>
<path fill-rule="evenodd" clip-rule="evenodd" d="M39.2928 21.657L44.2428 16.707C44.6332 16.3166 45.2663 16.3166 45.6568 16.707V16.707C46.0472 17.0975 46.0472 17.7306 45.6568 18.121L42.1209 21.6569C41.7304 22.0474 41.7304 22.6806 42.1209 23.0711L45.6568 26.607C46.0472 26.9975 46.0472 27.6306 45.6568 28.021V28.021C45.2663 28.4115 44.6332 28.4115 44.2428 28.021L39.2928 23.071C39.1053 22.8835 39 22.6292 39 22.364C39 22.0989 39.1053 21.8446 39.2928 21.657Z" fill="black"/>
<path fill-rule="evenodd" clip-rule="evenodd" d="M28.071 23.071L23.121 28.021C22.7305 28.4115 22.0975 28.4115 21.707 28.021V28.021C21.3165 27.6305 21.3165 26.9975 21.707 26.607L25.2429 23.0711C25.6334 22.6806 25.6334 22.0474 25.2429 21.6569L21.707 18.121C21.3165 17.7305 21.3165 17.0975 21.707 16.707V16.707C22.0975 16.3165 22.7305 16.3165 23.121 16.707L28.071 21.657C28.2585 21.8445 28.3638 22.0988 28.3638 22.364C28.3638 22.6292 28.2585 22.8835 28.071 23.071Z" fill="black"/>
<path fill-rule="evenodd" clip-rule="evenodd" d="M27.0859 41.28L25.774 42.79L27.2829 44.102L28.5949 42.592L30.1349 40.822L32.3989 42.79L33.9089 44.102L35.2199 42.592L36.7579 40.823L39.0209 42.79L40.5309 44.102L41.8419 42.592L40.3329 41.28L36.5589 38L35.2469 39.51H35.2489L33.7109 41.28L29.9369 38L29.0539 39.016L27.0859 41.28Z" fill="black"/>
</svg>
