<svg width="73" height="61" viewBox="0 0 73 61" fill="none" xmlns="http://www.w3.org/2000/svg">
<path fill-rule="evenodd" clip-rule="evenodd" d="M43.1696 0C62.1428 0 71 20.7808 71 39.6912C71 53.3511 56.8748 61 43.1696 61C24.3567 61 0 58.442 0 39.6912C0 16.8307 20.2333 0 43.1696 0Z" fill="#DB9AED"/>
<circle cx="27.5" cy="21.5" r="3.5" fill="black"/>
<circle cx="48.5" cy="21.5" r="3.5" fill="black"/>
<path d="M29 34H46C46 36.3869 45.1045 38.6761 43.5104 40.364C41.9163 42.0518 39.7543 43 37.5 43C35.2457 43 33.0837 42.0518 31.4896 40.364C29.8955 38.6761 29 36.3869 29 34Z" fill="black"/>
</svg>
