<svg width="71" height="61" viewBox="0 0 71 61" fill="none" xmlns="http://www.w3.org/2000/svg">
<path fill-rule="evenodd" clip-rule="evenodd" d="M43.1696 0C62.1428 0 71 20.7808 71 39.6912C71 53.3511 56.8748 61 43.1696 61C24.3567 61 0 58.442 0 39.6912C0 16.8307 20.2333 0 43.1696 0Z" fill="#86D3FD"/>
<path d="M30 35C30 39.1506 43.6829 41.3989 47 35" stroke="black" stroke-linecap="round"/>
<path d="M46.5 25.0063L45.9563 24.5113C44.025 22.76 42.75 21.6012 42.75 20.1875C42.75 19.0288 43.6575 18.125 44.8125 18.125C45.465 18.125 46.0912 18.4287 46.5 18.905C46.9088 18.4287 47.535 18.125 48.1875 18.125C49.3425 18.125 50.25 19.0288 50.25 20.1875C50.25 21.6012 48.975 22.76 47.0437 24.5113L46.5 25.0063Z" fill="#F72222"/>
<path d="M29.5 25.0062L28.9563 24.5113C27.025 22.76 25.75 21.6012 25.75 20.1875C25.75 19.0288 26.6575 18.125 27.8125 18.125C28.465 18.125 29.0913 18.4287 29.5 18.905C29.9087 18.4287 30.535 18.125 31.1875 18.125C32.3425 18.125 33.25 19.0288 33.25 20.1875C33.25 21.6012 31.975 22.76 30.0437 24.5113L29.5 25.0062Z" fill="#F72222"/>
</svg>
