<svg width="71" height="61" viewBox="0 0 71 61" fill="none" xmlns="http://www.w3.org/2000/svg">
<path fill-rule="evenodd" clip-rule="evenodd" d="M43.1696 0C62.1428 0 71 20.7808 71 39.6912C71 53.3511 56.8748 61 43.1696 61C24.3567 61 0 58.442 0 39.6912C0 16.8307 20.2333 0 43.1696 0Z" fill="#FFE372"/>
<circle cx="25.5" cy="21.5" r="3.5" fill="black"/>
<circle cx="46.5" cy="21.5" r="3.5" fill="black"/>
<path d="M46 43H29C29 40.6131 29.8955 38.3239 31.4896 36.636C33.0837 34.9482 35.2457 34 37.5 34C39.7543 34 41.9163 34.9482 43.5104 36.636C45.1045 38.3239 46 40.6131 46 43Z" fill="black"/>
<path d="M29 43H46C46 45.3869 45.1045 47.6761 43.5104 49.364C41.9163 51.0518 39.7543 52 37.5 52C35.2457 52 33.0837 51.0518 31.4896 49.364C29.8955 47.6761 29 45.3869 29 43Z" fill="black"/>
</svg>
